<?xml version="1.0" encoding="UTF-8" standalone="no"?>
<svg
   xmlns:dc="http://purl.org/dc/elements/1.1/"
   xmlns:cc="http://creativecommons.org/ns#"
   xmlns:rdf="http://www.w3.org/1999/02/22-rdf-syntax-ns#"
   xmlns:svg="http://www.w3.org/2000/svg"
   xmlns="http://www.w3.org/2000/svg"
   xmlns:sodipodi="http://sodipodi.sourceforge.net/DTD/sodipodi-0.dtd"
   xmlns:inkscape="http://www.inkscape.org/namespaces/inkscape"
   height="512pt"
   viewBox="0 0 512 512"
   width="512pt"
   version="1.1"
   id="svg70"
   sodipodi:docname="controller.svg"
   inkscape:version="1.0.2 (e86c870879, 2021-01-15)">
  <metadata
     id="metadata76">
    <rdf:RDF>
      <cc:Work
         rdf:about="">
        <dc:format>image/svg+xml</dc:format>
        <dc:type
           rdf:resource="http://purl.org/dc/dcmitype/StillImage" />
        <dc:title></dc:title>
      </cc:Work>
    </rdf:RDF>
  </metadata>
  <defs
     id="defs74" />
  <sodipodi:namedview
     pagecolor="#ffffff"
     bordercolor="#666666"
     borderopacity="1"
     objecttolerance="10"
     gridtolerance="10"
     guidetolerance="10"
     inkscape:pageopacity="0"
     inkscape:pageshadow="2"
     inkscape:window-width="1920"
     inkscape:window-height="1171"
     id="namedview72"
     showgrid="false"
     inkscape:zoom="1.0473633"
     inkscape:cx="-24.831284"
     inkscape:cy="301.22587"
     inkscape:window-x="1920"
     inkscape:window-y="0"
     inkscape:window-maximized="1"
     inkscape:current-layer="svg70" />
  <path
     d="m27.589844 306.226562c-10.863282 33.472657-17.269532 68.230469-19.054688 103.375 0 85.332032 8.53125 93.863282 42.664063 93.863282 81.921875 0 59.871093-84.476563 98.296875-105.980469l63.640625-4.949219h85.726562l63.640625 4.949219c38.425782 21.503906 16.375 105.980469 98.296875 105.980469 34.132813 0 42.664063-8.53125 42.664063-93.863282-1.785156-35.144531-8.191406-69.902343-19.054688-103.375l-31.90625-74.972656c-12.917968-21.0625-27.542968-34.988281-42.902344-34.988281-34.136718 0-25.601562 17.066406-93.867187 17.066406h-119.46875c-68.265625 0-59.730469-17.066406-93.867187-17.066406-15.359376 0-29.984376 13.925781-42.902344 34.988281zm0 0"
     fill="#5068c1"
     id="path2" />
  <g
     fill="#354aa3"
     id="g14">
    <path
       d="m503.464844 409.601562c0 85.332032-8.53125 93.863282-42.664063 93.863282-4.082031.019531-8.15625-.238282-12.203125-.765625 23.039063-3.414063 29.269532-20.308594 29.269532-93.097657-1.804688-35.132812-8.203126-69.871093-19.03125-103.339843l-31.914063-75.007813c-10.324219-16.726562-21.589844-28.929687-33.535156-33.195312 5.308593-1.28125 10.753906-1.882813 16.214843-1.792969 15.359376 0 29.949219 13.910156 42.921876 34.988281l31.914062 75.007813c10.828125 33.46875 17.226562 68.207031 19.027344 103.339843zm0 0"
       id="path4" />
    <path
       d="m221.867188 366.933594c0 23.5625-19.101563 42.667968-42.667969 42.667968-23.5625 0-42.664063-19.105468-42.664063-42.667968s19.101563-42.667969 42.664063-42.667969c23.566406 0 42.667969 19.105469 42.667969 42.667969zm0 0"
       id="path6" />
    <path
       d="m375.464844 366.933594c0 23.5625-19.101563 42.667968-42.664063 42.667968-23.566406 0-42.667969-19.105468-42.667969-42.667968s19.101563-42.667969 42.667969-42.667969c23.5625 0 42.664063 19.105469 42.664063 42.667969zm0 0"
       id="path8" />
    <path
       d="m162.132812 290.132812c.101563 36.117188-27.945312 66.0625-63.992187 68.324219-36.042969 2.261719-67.613281-23.945312-72.027344-59.789062-.683593-5.667969-.683593-11.398438 0-17.066407 4.414063-35.847656 35.984375-62.050781 72.027344-59.792968 36.046875 2.261718 64.09375 32.207031 63.992187 68.324218zm0 0"
       id="path10" />
    <path
       d="m486.398438 290.132812c0 37.703126-30.5625 68.265626-68.265626 68.265626-37.703124 0-68.265624-30.5625-68.265624-68.265626 0-37.703124 30.5625-68.265624 68.265624-68.265624 37.703126 0 68.265626 30.5625 68.265626 68.265624zm0 0"
       id="path12" />
  </g>
  <path
     d="m392.535156 290.132812c0 11.78125-9.554687 21.332032-21.335937 21.332032s-21.332031-9.550782-21.332031-21.332032 9.550781-21.332031 21.332031-21.332031 21.335937 9.550781 21.335937 21.332031zm0 0"
     fill="#ef3a76"
     id="path16" />
  <path
     d="m439.464844 243.199219c0 11.78125-9.550782 21.335937-21.332032 21.335937s-21.332031-9.554687-21.332031-21.335937 9.550781-21.332031 21.332031-21.332031 21.332032 9.550781 21.332032 21.332031zm0 0"
     fill="#9aca5c"
     id="path18" />
  <path
     d="m486.398438 290.132812c0 11.78125-9.550782 21.332032-21.332032 21.332032s-21.332031-9.550782-21.332031-21.332032 9.550781-21.332031 21.332031-21.332031 21.332032 9.550781 21.332032 21.332031zm0 0"
     fill="#f85b44"
     id="path20" />
  <path
     d="m439.464844 337.066406c0 11.78125-9.550782 21.332032-21.332032 21.332032s-21.332031-9.550782-21.332031-21.332032 9.550781-21.332031 21.332031-21.332031 21.332032 9.550781 21.332032 21.332031zm0 0"
     fill="#25a8f5"
     id="path22" />
  <path
     d="m196.265625 213.332031h119.46875v59.734375c0 9.425782-7.640625 17.066406-17.066406 17.066406h-85.335938c-9.425781 0-17.066406-7.640624-17.066406-17.066406zm0 0"
     fill="#25a8f5"
     id="path24" />
  <path
     d="m179.199219 418.132812c-28.277344 0-51.199219-22.921874-51.199219-51.199218s22.921875-51.199219 51.199219-51.199219c28.277343 0 51.199219 22.921875 51.199219 51.199219-.027344 28.265625-22.933594 51.171875-51.199219 51.199218zm0-85.332031c-18.851563 0-34.132813 15.28125-34.132813 34.132813 0 18.851562 15.28125 34.132812 34.132813 34.132812 18.851562 0 34.132812-15.28125 34.132812-34.132812 0-18.851563-15.28125-34.132813-34.132812-34.132813zm0 0"
     id="path26" />
  <path
     d="m187.734375 366.933594c0 4.710937-3.820313 8.53125-8.535156 8.53125-4.710938 0-8.53125-3.820313-8.53125-8.53125 0-4.714844 3.820312-8.535156 8.53125-8.535156 4.714843 0 8.535156 3.820312 8.535156 8.535156zm0 0"
     id="path28" />
  <path
     d="m341.332031 366.933594c0 4.710937-3.820312 8.53125-8.53125 8.53125-4.714843 0-8.535156-3.820313-8.535156-8.53125 0-4.714844 3.820313-8.535156 8.535156-8.535156 4.710938 0 8.53125 3.820312 8.53125 8.535156zm0 0"
     id="path30" />
  <path
     d="m93.867188 366.933594c-42.414063 0-76.800782-34.386719-76.800782-76.800782 0-42.414062 34.386719-76.800781 76.800782-76.800781 42.414062 0 76.800781 34.386719 76.800781 76.800781-.054688 42.394532-34.40625 76.75-76.800781 76.800782zm0-136.535156c-32.992188 0-59.734376 26.746093-59.734376 59.734374 0 32.992188 26.742188 59.734376 59.734376 59.734376 32.988281 0 59.734374-26.742188 59.734374-59.734376-.039062-32.972656-26.761718-59.695312-59.734374-59.734374zm0 0"
     id="path32" />
  <path
     d="m418.132812 366.933594c-42.414062 0-76.800781-34.386719-76.800781-76.800782 0-42.414062 34.386719-76.800781 76.800781-76.800781 42.414063 0 76.800782 34.386719 76.800782 76.800781-.050782 42.394532-34.40625 76.75-76.800782 76.800782zm0-136.535156c-32.988281 0-59.734374 26.746093-59.734374 59.734374 0 32.992188 26.746093 59.734376 59.734374 59.734376 32.992188 0 59.734376-26.742188 59.734376-59.734376-.039063-32.972656-26.757813-59.695312-59.734376-59.734374zm0 0"
     id="path34" />
  <path
     d="m332.800781 418.132812c-28.277343 0-51.199219-22.921874-51.199219-51.199218s22.921876-51.199219 51.199219-51.199219c28.277344 0 51.199219 22.921875 51.199219 51.199219-.027344 28.265625-22.933594 51.171875-51.199219 51.199218zm0-85.332031c-18.851562 0-34.132812 15.28125-34.132812 34.132813 0 18.851562 15.28125 34.132812 34.132812 34.132812 18.851563 0 34.132813-15.28125 34.132813-34.132812 0-18.851563-15.28125-34.132813-34.132813-34.132813zm0 0"
     id="path36" />
  <path
     id="path38"
     style="stroke-width:1.33333"
     transform="scale(0.74999998)"
     d="m 139.32422,250.29297 c -0.93029,-0.007 -1.86133,-6.5e-4 -2.79297,0.0195 -23.1875,0 -45.702473,17.51042 -66.900391,52.03125 -2.723957,4.44271 -2.078777,10.17643 1.572266,13.90039 3.651041,3.72917 9.363931,4.49544 13.869141,1.86524 29.666664,-17.35937 67.125654,-13.7448 92.927734,8.96874 25.80208,22.71366 34.13477,59.4069 20.68164,91.03711 -13.45833,31.6356 -45.67643,51.07292 -79.93164,48.23438 C 84.489583,463.5111 55.91146,439.0306 47.84375,405.61914 46.635417,400.63476 42.244792,397.07878 37.125,396.92773 32,396.77669 27.40625,400.06771 25.90625,404.96875 11.130207,450.6875 2.4218747,498.14518 0,546.13477 c 0,107.4375 8.4999957,136.53125 68.265625,136.53125 75.718755,0 92.640625,-50.17578 106.234375,-90.48829 7.86458,-23.32291 14.6569,-43.46354 30.38086,-52.26562 3.13542,-1.75521 5.25966,-4.88672 5.72852,-8.44922 0.46875,-3.56771 -0.7754,-7.13932 -3.35352,-9.64453 -14.85938,-14.40625 -18.13021,-37.02658 -7.95313,-55.05274 10.17709,-18.02604 31.23438,-26.9121 51.25,-21.63085 20.01042,5.28645 33.93751,23.41145 33.89063,44.10937 -0.0365,9.88021 -3.32357,19.47526 -9.34961,27.30859 -2.58854,3.44792 -3.00521,8.05599 -1.07813,11.91016 1.9272,3.85938 5.87045,6.29297 10.17774,6.29297 h 114.25391 c 4.31249,0 8.25065,-2.43359 10.17773,-6.29297 1.92708,-3.85417 1.51107,-8.46224 -1.07227,-11.91016 -14.875,-19.5052 -11.66276,-47.2819 7.26954,-62.88085 18.93229,-15.59907 46.80729,-13.43295 63.10937,4.90039 16.29688,18.33333 15.1836,46.27213 -2.51953,63.24609 -2.57813,2.50521 -3.82422,6.07682 -3.35547,9.64453 0.46875,3.5625 2.59505,6.69401 5.73047,8.44922 15.72396,8.80208 22.51432,28.94271 30.37891,52.26562 13.59375,40.31251 30.51562,90.48829 106.23437,90.48829 59.76563,0 68.26563,-29.09375 68.26563,-136.53125 -2.40105,-47.98438 -11.09245,-95.44206 -25.84766,-141.16602 -1.60417,-4.82812 -6.13542,-8.07226 -11.21875,-8.04102 -5.125,0.15105 -9.51042,3.70703 -10.71875,8.69141 -8.06771,33.36979 -36.60937,57.81771 -70.82813,60.65625 -34.21354,2.84375 -66.40104,-16.56185 -79.85937,-48.15039 -13.45833,-31.58333 -5.16211,-68.23958 20.58789,-90.95312 25.75,-22.70845 63.15625,-26.35949 92.8125,-9.0625 4.50521,2.6302 10.2181,1.86393 13.86914,-1.86524 3.65104,-3.72396 4.29818,-9.45768 1.57422,-13.90039 -21.19792,-34.52083 -43.71484,-52.03125 -66.90234,-52.03125 -14.90625,-0.32813 -29.67644,2.89648 -43.08789,9.39648 -14.56262,6.26042 -31.09961,13.35938 -82.06836,13.35938 H 261.6875 c -50.96875,0 -67.50586,-7.09896 -82.06836,-13.35938 -12.57324,-6.09375 -26.34066,-9.30838 -40.29492,-9.41601 z m -0.57617,22.75 c 11.07231,0.0425 21.99121,2.62988 31.91797,7.57617 15.73437,6.77083 35.36523,15.20313 91.02148,15.20313 h 159.29102 c 55.65625,0 75.2871,-8.4323 91.02148,-15.20313 10.58854,-5.27604 22.30664,-7.86849 34.13477,-7.55078 9.59375,0.80729 18.53125,5.20247 25.03125,12.30664 -4.52605,-0.61979 -9.08854,-0.93164 -13.65625,-0.93164 -33.70313,0 -65.25,16.58333 -84.35938,44.34375 -19.10937,27.76562 -23.33279,63.15549 -11.29101,94.63477 -20.54178,-5.65636 -42.54688,-1.39584 -59.5,11.51562 -16.94803,12.91146 -26.89584,32.99935 -26.89063,54.30664 -0.0156,7.76042 1.32812,15.45899 3.96875,22.75586 h -76.22852 c 2.64584,-7.29167 3.9987,-14.99544 3.98829,-22.75586 0.005,-21.30729 -9.94271,-41.39518 -26.89063,-54.30664 -16.95313,-12.91146 -38.95833,-17.17198 -59.5,-11.51562 12.04167,-31.47928 7.81847,-66.86915 -11.29102,-94.63477 -19.10937,-27.76042 -50.65624,-44.34375 -84.35937,-44.34375 -4.56771,0 -9.13021,0.31185 -13.65625,0.93164 6.5,-7.10417 15.4375,-11.49935 25.03125,-12.30664 0.73926,-0.0199 1.47864,-0.0282 2.2168,-0.0254 z m 504.85547,169.22265 c 9.35416,33.89074 14.82942,68.73894 16.30859,103.86915 0,113.77604 -11.47005,113.77734 -45.51172,113.77734 -59.38021,0 -71.68099,-36.41211 -84.66016,-75.00586 -7.11458,-21.01042 -14.38671,-42.61914 -29.87109,-56.88477 10.07813,-14.55208 14.10417,-32.45442 11.21875,-49.91796 46.82813,23.8177 104.07812,8.33409 132.51563,-35.8379 z m -604.533208,0.01 c 28.439825,44.16383 85.683398,59.64395 132.507808,35.82813 -2.88541,17.46354 1.14052,35.36588 11.21876,49.91796 -15.48449,14.26563 -22.7806,35.87435 -29.86915,56.88477 -12.97916,38.59375 -25.2819,75.00586 -84.662105,75.00586 -34.041668,0 -45.509766,-10e-4 -45.509766,-113.77734 1.484237,-35.1269 6.956692,-69.97177 16.314453,-103.85938 z" />
  <path
     d="m366.933594 315.734375c-14.140625 0-25.601563-11.460937-25.601563-25.601563 0-14.136718 11.460938-25.597656 25.601563-25.597656 14.136718 0 25.601562 11.460938 25.601562 25.597656 0 14.140626-11.464844 25.601563-25.601562 25.601563zm0-34.132813c-4.714844 0-8.535156 3.820313-8.535156 8.53125 0 4.714844 3.820312 8.535157 8.535156 8.535157 4.710937 0 8.53125-3.820313 8.53125-8.535157 0-4.710937-3.820313-8.53125-8.53125-8.53125zm0 0"
     id="path40" />
  <path
     d="m418.132812 264.535156c-14.136718 0-25.597656-11.464844-25.597656-25.601562 0-14.140625 11.460938-25.601563 25.597656-25.601563 14.140626 0 25.601563 11.460938 25.601563 25.601563 0 14.136718-11.460937 25.601562-25.601563 25.601562zm0-34.136718c-4.710937 0-8.53125 3.820312-8.53125 8.535156 0 4.710937 3.820313 8.53125 8.53125 8.53125 4.714844 0 8.535157-3.820313 8.535157-8.53125 0-4.714844-3.820313-8.535156-8.535157-8.535156zm0 0"
     id="path42" />
  <path
     d="m469.332031 315.734375c-14.136719 0-25.597656-11.460937-25.597656-25.601563 0-14.136718 11.460937-25.597656 25.597656-25.597656 14.140625 0 25.601563 11.460938 25.601563 25.597656 0 14.140626-11.460938 25.601563-25.601563 25.601563zm0-34.132813c-4.710937 0-8.53125 3.820313-8.53125 8.53125 0 4.714844 3.820313 8.535157 8.53125 8.535157 4.714844 0 8.535157-3.820313 8.535157-8.535157 0-4.710937-3.820313-8.53125-8.535157-8.53125zm0 0"
     id="path44" />
  <path
     d="m418.132812 366.933594c-14.136718 0-25.597656-11.460938-25.597656-25.601563 0-14.136719 11.460938-25.597656 25.597656-25.597656 14.140626 0 25.601563 11.460937 25.601563 25.597656 0 14.140625-11.460937 25.601563-25.601563 25.601563zm0-34.132813c-4.710937 0-8.53125 3.820313-8.53125 8.53125 0 4.714844 3.820313 8.535157 8.53125 8.535157 4.714844 0 8.535157-3.820313 8.535157-8.535157 0-4.710937-3.820313-8.53125-8.535157-8.53125zm0 0"
     id="path46" />
  <path
     d="m93.867188 273.066406c-4.714844 0-8.535157-3.820312-8.535157-8.53125v-42.667968c0-4.714844 3.820313-8.535157 8.535157-8.535157 4.710937 0 8.53125 3.820313 8.53125 8.535157v42.667968c0 4.710938-3.820313 8.53125-8.53125 8.53125zm0 0"
     id="path48" />
  <path
     d="m59.734375 298.667969h-34.132813c-4.714843 0-8.535156-3.820313-8.535156-8.535157 0-4.710937 3.820313-8.53125 8.535156-8.53125h34.132813c4.710937 0 8.53125 3.820313 8.53125 8.53125 0 4.714844-3.820313 8.535157-8.53125 8.535157zm0 0"
     id="path50" />
  <path
     d="m162.132812 298.667969h-34.132812c-4.710938 0-8.535156-3.820313-8.535156-8.535157 0-4.710937 3.824218-8.53125 8.535156-8.53125h34.132812c4.714844 0 8.535157 3.820313 8.535157 8.53125 0 4.714844-3.820313 8.535157-8.535157 8.535157zm0 0"
     id="path52" />
  <path
     d="m93.867188 366.933594c-4.714844 0-8.535157-3.820313-8.535157-8.535156v-34.132813c0-4.710937 3.820313-8.53125 8.535157-8.53125 4.710937 0 8.53125 3.820313 8.53125 8.53125v34.132813c0 4.714843-3.820313 8.535156-8.53125 8.535156zm0 0"
     id="path54" />
  <path
     d="m298.667969 298.667969h-85.335938c-14.136719 0-25.597656-11.460938-25.597656-25.601563v-59.734375c0-4.710937 3.820313-8.53125 8.53125-8.53125h119.46875c4.710937 0 8.53125 3.820313 8.53125 8.53125v59.734375c0 14.140625-11.460937 25.601563-25.597656 25.601563zm-93.867188-76.800781v51.199218c0 4.714844 3.820313 8.535156 8.53125 8.535156h85.335938c4.710937 0 8.53125-3.820312 8.53125-8.535156v-51.199218zm0 0"
     id="path56" />
  <path
     id="path58"
     style="stroke-width:1.33333"
     transform="scale(0.74999998)"
     d="m 330.42969,214.76758 c -0.0189,10e-4 -0.0377,0.004 -0.0566,0.006 -8.1e-4,0.007 -6.4e-4,0.0144 -0.002,0.0215 0.0195,-0.009 0.0391,-0.0182 0.0586,-0.0273 z" />
  <path
     id="path60"
     style="stroke-width:1.33333"
     transform="scale(0.74999998)"
     d="m 336.20898,259.99023 c -0.0842,0.0153 -0.16755,0.0445 -0.25195,0.0586 -0.15144,0.0252 -0.30238,0.0445 -0.45508,0.0605 -0.0399,0.004 -0.081,1e-5 -0.12109,0 -0.37345,0.001 -0.74813,0.0149 -1.12109,-0.008 -0.0446,-0.003 -0.0881,-0.005 -0.13282,-0.008 -0.0249,0 -0.0828,0.022 -0.0762,-0.002 0.01,-0.032 0.12252,-0.0503 0.0898,-0.0449 -0.095,0.016 -0.18463,0.0587 -0.27929,0.0762 -0.29624,0.0553 -0.29723,0.0509 -0.50195,0.0469 -0.53736,0.0281 -1.06944,0.0931 -1.60743,0.11719 -0.30047,0.013 -0.60221,-0.0221 -0.90234,0.0137 -0.14827,0.0451 -0.29027,0.0717 -0.49414,0.13867 -0.13479,0.0443 -0.26781,0.0936 -0.40235,0.13867 v 23.86524 c 9e-5,6.28646 5.09961,11.37891 11.38086,11.37891 6.28126,0 11.37891,-5.09245 11.37891,-11.37891 v -24.07617 h -0.17773 c -0.36718,-2e-5 -0.73439,-10e-5 -1.10157,0 -0.41602,5e-5 -0.832,3.2e-4 -1.24804,0 -0.3025,0 -0.60381,0.006 -0.90625,-0.002 -0.11158,-0.001 -0.23202,-0.0125 -0.34375,-0.006 -0.21468,0.0121 -0.4286,0.0505 -0.64453,0.0195 -0.13692,-0.024 -0.27384,-0.0433 -0.41016,-0.0703 -0.0212,-0.004 -0.0813,-0.0181 -0.0605,-0.0234 0.0272,-0.008 0.0555,-0.004 0.084,-0.002 -0.13824,6e-5 -0.14642,0 -0.28711,0 -0.28726,-1.3e-4 -0.57408,-0.001 -0.86133,0 -0.48611,0.001 -0.97095,-0.005 -1.45703,-0.006 -0.57696,0.007 -1.16056,0.0782 -1.73047,-0.0508 -0.21105,-0.0468 -0.39577,-0.0319 -0.61524,-0.0332 -0.29238,-0.001 -0.58455,-0.005 -0.87695,-0.004 -0.3214,0.004 -0.75157,0.0629 -1.05469,0.0176 -0.1551,-0.0231 -0.30792,-0.0629 -0.46093,-0.0976 0.0472,-0.003 0.0956,-5.3e-4 0.14257,-0.006 0.049,-0.006 -0.0992,-0.007 -0.14843,-0.004 -0.0104,6.8e-4 -0.0209,0.001 -0.0312,0.002 0,0 -0.002,0 -0.002,0 -0.20322,0.0156 -0.40649,0.0491 -0.61132,0.0234 -0.13055,-0.016 -0.26063,-0.0292 -0.39063,-0.0488 -0.0356,-0.005 -0.0715,-0.0134 -0.10547,-0.0254 -0.0161,-0.006 -0.028,-0.0227 -0.0449,-0.0254 -0.14949,-0.02 -0.30667,0.0136 -0.45703,0 -0.34289,-5e-5 -0.68445,-4.8e-4 -1.02734,0 -0.2143,0 -0.42829,7.1e-4 -0.64258,-0.002 -0.33966,0.003 -0.68101,0.0202 -1.01953,-0.0137 -0.0681,-0.0149 -0.001,0.004 0.0195,-0.0137 0.008,-0.007 -0.0225,-0.009 -0.0332,-0.006 z" />
</svg>
